<?xml version="1.0" encoding="UTF-8" standalone="no"?>
<!DOCTYPE svg PUBLIC "-//W3C//DTD SVG 1.1//EN" "http://www.w3.org/Graphics/SVG/1.1/DTD/svg11.dtd">
<svg width="100%" height="100%" viewBox="0 0 1319 830" version="1.1" xmlns="http://www.w3.org/2000/svg" xmlns:xlink="http://www.w3.org/1999/xlink" xml:space="preserve" xmlns:serif="http://www.serif.com/" style="fill-rule:evenodd;clip-rule:evenodd;stroke-linejoin:round;stroke-miterlimit:2;">
    <g transform="matrix(0,-11.4655,-11.4655,0,101.232,371.746)">
        <path d="M-31.404,-31.404C-48.749,-31.404 -62.808,-17.344 -62.808,-0C-62.808,17.344 -48.749,31.404 -31.404,31.404C-14.06,31.404 -0,17.344 -0,-0C-0,-17.344 -14.06,-31.404 -31.404,-31.404" style="fill:white;fill-opacity:0.49;fill-rule:nonzero;"/>
    </g>
    <g transform="matrix(0,-2.66195,-2.66195,0,100.584,648.212)">
        <path d="M-31.404,-31.404C-48.749,-31.404 -62.808,-17.344 -62.808,-0C-62.808,17.344 -48.749,31.404 -31.404,31.404C-14.06,31.404 -0,17.344 -0,-0C-0,-17.344 -14.06,-31.404 -31.404,-31.404" style="fill:rgb(253,211,10);fill-opacity:0;fill-rule:nonzero;stroke:black;stroke-width:1.64px;"/>
    </g>
    <g transform="matrix(2.66195,0,0,2.66195,391.541,871.576)">
        <path d="M0,-105.012L-67.217,-37.795L-20.276,-37.795C-27.321,4.986 -64.557,37.726 -109.302,37.726C-140.698,37.726 -168.388,21.599 -184.557,-2.797L-206.843,19.49C-184.762,49.356 -149.296,68.726 -109.302,68.726C-42.347,68.726 11.93,14.449 11.93,-52.506C11.93,-71.316 7.646,-89.125 0,-105.012M-198.328,-67.216C-191.283,-109.998 -154.047,-142.738 -109.302,-142.738C-77.906,-142.738 -50.216,-126.611 -34.047,-102.215L-11.761,-124.501C-33.842,-154.368 -69.308,-173.738 -109.302,-173.738C-176.257,-173.738 -230.534,-119.46 -230.534,-52.506C-230.534,-33.695 -226.25,-15.886 -218.604,0L-151.387,-67.216L-198.328,-67.216Z" style="fill-opacity:0;fill-rule:nonzero;stroke:black;stroke-width:1.64px;"/>
    </g>
    <g transform="matrix(0,-11.4655,-11.4655,0,1212.23,-248.254)">
        <path d="M-31.404,-31.404C-48.749,-31.404 -62.808,-17.344 -62.808,-0C-62.808,17.344 -48.749,31.404 -31.404,31.404C-14.06,31.404 -0,17.344 -0,-0C-0,-17.344 -14.06,-31.404 -31.404,-31.404" style="fill:white;fill-opacity:0.49;fill-rule:nonzero;"/>
    </g>
    <g transform="matrix(0,-2.66195,-2.66195,0,1211.58,28.2121)">
        <path d="M-31.404,-31.404C-48.749,-31.404 -62.808,-17.344 -62.808,-0C-62.808,17.344 -48.749,31.404 -31.404,31.404C-14.06,31.404 -0,17.344 -0,-0C-0,-17.344 -14.06,-31.404 -31.404,-31.404" style="fill:rgb(253,211,10);fill-opacity:0;fill-rule:nonzero;stroke:black;stroke-width:1.64px;"/>
    </g>
    <g transform="matrix(2.66195,0,0,2.66195,1502.54,251.576)">
        <path d="M0,-105.012L-67.217,-37.795L-20.276,-37.795C-27.321,4.986 -64.557,37.726 -109.302,37.726C-140.698,37.726 -168.388,21.599 -184.557,-2.797L-206.843,19.49C-184.762,49.356 -149.296,68.726 -109.302,68.726C-42.347,68.726 11.93,14.449 11.93,-52.506C11.93,-71.316 7.646,-89.125 0,-105.012M-198.328,-67.216C-191.283,-109.998 -154.047,-142.738 -109.302,-142.738C-77.906,-142.738 -50.216,-126.611 -34.047,-102.215L-11.761,-124.501C-33.842,-154.368 -69.308,-173.738 -109.302,-173.738C-176.257,-173.738 -230.534,-119.46 -230.534,-52.506C-230.534,-33.695 -226.25,-15.886 -218.604,0L-151.387,-67.216L-198.328,-67.216Z" style="fill-opacity:0;fill-rule:nonzero;stroke:black;stroke-width:1.64px;"/>
    </g>
</svg>
